<svg width="38" height="44" viewBox="0 0 44 38" fill="none" xmlns="http://www.w3.org/2000/svg">
<g clip-path="url(#clip0_72_170)">
<path d="M19.2461 44L16.5391 41.9189C16.5391 41.9189 9.84211 36.8492 1.53343 35.9886L0.0312945 35.8321L0 9.96729L1.84637 10.1551C6.60313 10.6401 10.9844 12.862 14.2233 16.4139C17.478 19.9972 19.2617 24.6287 19.2617 29.4637V32.2959H19.2461V43.9844V44ZM3.39545 32.8435C8.71551 33.6885 13.2063 35.8791 15.8976 37.4751V28.744C15.569 21.4211 10.4054 15.3499 3.36415 13.8009L3.39545 32.8592V32.8435Z" fill="white"/>
<path d="M8.23049 34.0171V22.3286H8.21484V19.5121C8.21484 14.6771 9.99863 10.0299 13.2533 6.4623C16.4609 2.89474 20.8578 0.672831 25.6146 0.187767L27.4609 0L27.414 25.8649L25.9119 26.0213C17.6032 26.8819 10.9844 31.9047 10.9062 31.9516L8.21484 34.0171H8.23049ZM11.579 18.7767V27.5078C14.2703 25.9118 18.7454 23.7212 24.0811 22.8762L24.1124 3.81792C17.0868 5.367 11.9076 11.4538 11.5946 18.761" fill="white"/>
</defs>
</svg>
