<svg width="148" height="44" viewBox="0 0 148 44" fill="none" xmlns="http://www.w3.org/2000/svg">
<g clip-path="url('#clip0_72_170')">
<path d="M19.2461 44L16.5391 41.9189C16.5391 41.9189 9.84211 36.8492 1.53343 35.9886L0.0312945 35.8321L0 9.96729L1.84637 10.1551C6.60313 10.6401 10.9844 12.862 14.2233 16.4139C17.478 19.9972 19.2617 24.6287 19.2617 29.4637V32.2959H19.2461V43.9844V44ZM3.39545 32.8435C8.71551 33.6885 13.2063 35.8791 15.8976 37.4751V28.744C15.569 21.4211 10.4054 15.3499 3.36415 13.8009L3.39545 32.8592V32.8435Z" fill="white"></path>
<path d="M8.23049 34.0171V22.3286H8.21484V19.5121C8.21484 14.6771 9.99863 10.0299 13.2533 6.4623C16.4609 2.89474 20.8578 0.672831 25.6146 0.187767L27.4609 0L27.414 25.8649L25.9119 26.0213C17.6032 26.8819 10.9844 31.9047 10.9062 31.9516L8.21484 34.0171H8.23049ZM11.579 18.7767V27.5078C14.2703 25.9118 18.7454 23.7212 24.0811 22.8762L24.1124 3.81792C17.0868 5.367 11.9076 11.4538 11.5946 18.761" fill="white"></path>
<path d="M32.9688 19.1209V5.2262H36.7241V16.0854H42.0754V19.1209H32.9688Z" fill="white"></path>
<path d="M48.0683 5.2262H44.2974V19.1209H48.0683V5.2262Z" fill="white"></path>
<path d="M51.0725 5.2262H55.9232C57.8165 5.2262 59.2091 5.50785 60.1323 6.07115C61.0398 6.63445 61.5092 7.51069 61.5092 8.68423C61.5092 9.46659 61.3058 10.1238 60.9146 10.6871C60.5078 11.2347 59.9914 11.5946 59.3342 11.7511V11.845C60.1948 12.0797 60.8207 12.4552 61.2119 12.9872C61.6031 13.5192 61.7909 14.2077 61.7909 15.0683C61.7909 16.3201 61.3214 17.3215 60.367 18.0413C59.4125 18.761 58.1294 19.1366 56.4864 19.1366H51.0725V5.2262ZM54.8278 10.5619H55.9544C56.4864 10.5619 56.9089 10.4524 57.2062 10.2333C57.5035 10.0142 57.6443 9.68566 57.6443 9.24753C57.6443 8.46517 57.0497 8.07399 55.8762 8.07399H54.8278V10.5619ZM54.8278 13.3002V16.2262H56.1422C57.3158 16.2262 57.8947 15.7255 57.8947 14.7397C57.8947 14.2703 57.7382 13.9261 57.4253 13.6757C57.1123 13.4253 56.6586 13.3002 56.064 13.3002H54.8122H54.8278Z" fill="white"></path>
<path d="M67.9401 14.0669V19.1209H64.1848V5.2262H68.7382C72.5091 5.2262 74.4025 6.60315 74.4025 9.32577C74.4025 10.9374 73.6201 12.1736 72.0397 13.0655L76.0924 19.1209H71.8363L68.8946 14.0669H67.9401ZM67.9401 11.2504H68.6443C69.9586 11.2504 70.6158 10.6714 70.6158 9.51354C70.6158 8.55906 69.9743 8.07399 68.6912 8.07399H67.9558V11.2504H67.9401Z" fill="white"></path>
<path d="M85.8876 19.1209L85.1991 16.5235H80.677L79.9729 19.1209H75.842L80.3797 5.16357H85.3868L89.9715 19.1209H85.8719H85.8876ZM84.4324 13.441L83.8378 11.1565C83.6969 10.6558 83.5248 9.99857 83.3371 9.18491C83.1336 8.3869 83.0085 7.80796 82.9459 7.46372C82.8833 7.79231 82.7738 8.32431 82.6016 9.05973C82.4295 9.79515 82.0696 11.266 81.4907 13.441H84.448H84.4324Z" fill="white"></path>
<path d="M95.2446 14.0669V19.1209H91.4893V5.2262H96.0426C99.8136 5.2262 101.707 6.60315 101.707 9.32577C101.707 10.9374 100.925 12.1736 99.3442 13.0655L103.397 19.1209H99.1408L96.1991 14.0669H95.2446ZM95.2446 11.2504H95.9487C97.2631 11.2504 97.9203 10.6714 97.9203 9.51354C97.9203 8.55906 97.2787 8.07399 95.9957 8.07399H95.2602V11.2504H95.2446Z" fill="white"></path>
<path d="M109.624 10.3741L112.018 5.2262H116.087L111.518 13.6913V19.1209H107.731V13.8165L103.162 5.2262H107.246L109.624 10.3741Z" fill="white"></path>
<path d="M46.2063 39.8691H41.2774L36.2077 30.074H36.1295C36.2546 31.6074 36.3016 32.7809 36.3016 33.5946V39.8535H32.9844V25.9587H37.882L42.936 35.6131H42.9986C42.9047 34.2205 42.8734 33.0939 42.8734 32.2333V25.9587H46.2219V39.8535L46.2063 39.8691Z" fill="white"></path>
<path d="M57.4566 39.8691H49.1948V25.9744H57.4566V28.9786H52.9502V31.1692H57.1123V34.1892H52.9502V36.8022H57.4566V39.8691Z" fill="white"></path>
<path d="M72.3997 39.8691H68.0498L65.3428 35.5192L62.6672 39.8691H58.4268L63.027 32.7496L58.6928 25.9744H62.8549L65.3741 30.2617L67.7838 25.9744H72.0711L67.6586 33.0469L72.3997 39.8691Z" fill="white"></path>
<path d="M80.0824 39.8691H76.3271V29.0412H72.9473V25.9744H83.4778V29.0412H80.0824V39.8691Z" fill="white"></path>
<path d="M102.302 32.6245C102.302 34.9402 101.66 36.724 100.393 37.9758C99.1096 39.2276 97.3258 39.8535 95.01 39.8535H90.5193V25.9587H95.323C97.5605 25.9587 99.2817 26.522 100.487 27.6643C101.691 28.8065 102.302 30.4495 102.302 32.6088V32.6245ZM98.4055 32.734C98.4055 31.4666 98.1551 30.5121 97.6544 29.9018C97.1537 29.2916 96.387 28.9787 95.3543 28.9787H94.259V36.7553H95.0883C96.2305 36.7553 97.0598 36.4267 97.5918 35.7696C98.1238 35.1124 98.3898 34.0953 98.3898 32.734" fill="white"></path>
<path d="M117.792 32.9061C117.792 35.2376 117.213 37.0214 116.071 38.2418C114.929 39.4623 113.239 40.0726 111.033 40.0726C108.827 40.0726 107.184 39.4623 106.026 38.2418C104.868 37.0214 104.289 35.2376 104.289 32.9061C104.289 30.5747 104.868 28.8222 106.026 27.6017C107.184 26.3812 108.858 25.771 111.064 25.771C113.27 25.771 114.945 26.3812 116.087 27.5861C117.229 28.7909 117.792 30.5747 117.792 32.9218V32.9061ZM108.232 32.9218C108.232 35.6131 109.171 36.9588 111.033 36.9588C111.987 36.9588 112.691 36.6302 113.145 35.9886C113.599 35.3315 113.834 34.3144 113.834 32.9374C113.834 31.5605 113.599 30.5278 113.13 29.8706C112.66 29.2134 111.972 28.8691 111.048 28.8691C109.171 28.8691 108.232 30.2305 108.232 32.9374" fill="white"></path>
<path d="M133.314 32.9061C133.314 35.2376 132.735 37.0214 131.593 38.2418C130.451 39.4623 128.761 40.0726 126.555 40.0726C124.348 40.0726 122.706 39.4623 121.548 38.2418C120.39 37.0214 119.811 35.2376 119.811 32.9061C119.811 30.5747 120.39 28.8222 121.548 27.6017C122.706 26.3812 124.38 25.771 126.586 25.771C128.792 25.771 130.467 26.3812 131.609 27.5861C132.751 28.7909 133.314 30.5747 133.314 32.9218V32.9061ZM123.754 32.9218C123.754 35.6131 124.693 36.9588 126.555 36.9588C127.509 36.9588 128.213 36.6302 128.667 35.9886C129.121 35.3315 129.356 34.3144 129.356 32.9374C129.356 31.5605 129.121 30.5278 128.651 29.8706C128.182 29.2134 127.494 28.8691 126.57 28.8691C124.693 28.8691 123.754 30.2305 123.754 32.9374" fill="white"></path>
<path d="M139.573 34.815V39.8691H135.818V25.9744H140.371C144.142 25.9744 146.036 27.3357 146.036 30.0739C146.036 31.6856 145.253 32.9217 143.673 33.8136L147.725 39.8691H143.469L140.528 34.815H139.573ZM139.573 31.9985H140.277C141.592 31.9985 142.249 31.4196 142.249 30.2617C142.249 29.3072 141.607 28.8222 140.324 28.8222H139.589V31.9985H139.573Z" fill="white"></path>
</g>
<defs>
<clipPath id="clip0_72_170">
<rect width="147.725" height="44" fill="white"></rect>
</clipPath>
</defs>
</svg>
