<svg width="38" height="44" viewBox="0 0 44 38" fill="none" xmlns="http://www.w3.org/2000/svg"><g clip-path="url('#clip0_72_170')" fill="#fff"><path d="m19.246 44-2.707-2.081s-6.697-5.07-15.006-5.93l-1.502-.157L0 9.967l1.846.188c4.757.485 9.138 2.707 12.377 6.259a19.36 19.36 0 0 1 5.039 13.05v2.832h-.016V44ZM3.396 32.843c5.32.845 9.81 3.036 12.502 4.632v-8.731c-.329-7.323-5.493-13.394-12.534-14.943l.031 19.058v-.016Z"/><path d="M8.23 34.017V22.33h-.015v-2.817a19.33 19.33 0 0 1 5.038-13.05A19.215 19.215 0 0 1 25.615.188L27.46 0l-.047 25.865-1.502.156c-8.309.86-14.928 5.884-15.006 5.93l-2.691 2.066h.015Zm3.349-15.24v8.73c2.691-1.595 7.166-3.786 12.502-4.63l.031-19.06a15.981 15.981 0 0 0-12.517 14.944"/></g></svg>