<svg width="148" height="44" viewBox="0 0 148 44" fill="none" xmlns="http://www.w3.org/2000/svg">
<g clip-path="url('#clip0_90_282')">
<path d="M19.2381 44L16.537 41.9169C16.473 41.8677 9.84656 36.8462 1.54009 35.9854L0.0379925 35.8297L0 9.97253L1.84959 10.1606C6.60144 10.6444 10.9947 12.8683 14.2194 16.4229C17.4664 20.0016 19.2548 24.6386 19.2548 29.4775V32.3038L19.2381 32.2945V43.999V44ZM3.38782 32.8459C8.71049 33.6836 13.1945 35.8862 15.8846 37.4782V28.7418C15.5584 21.425 10.3924 15.3415 3.3591 13.7931L3.38782 32.845V32.8459Z" fill="#06A09C"></path>
<path d="M8.22483 34.0154L8.22298 30.6164V22.322L8.2063 22.3313V19.505C8.2063 14.6651 9.99473 10.0291 13.2417 6.45039C16.4674 2.89577 20.8606 0.671819 25.6124 0.188109L27.462 0L27.4231 25.8572L25.921 26.0128C17.6146 26.8737 10.989 31.8952 10.9223 31.9452L8.22483 34.0154ZM11.5765 18.7692V27.5057C14.2666 25.9128 18.7506 23.7101 24.0733 22.8734L24.102 3.82149C17.0697 5.36992 11.9027 11.4534 11.5774 18.7702L11.5765 18.7692Z" fill="#1C509D"></path>
<path d="M32.9683 19.1205V5.22729H36.7221V16.0895H42.0726V19.1205H32.9683Z" fill="#262B41"></path>
<path d="M44.2966 19.1205V5.22729H48.069V19.1205H44.2966Z" fill="#262B41"></path>
<path d="M51.0723 5.22729H55.9186C57.8062 5.22729 59.2082 5.50807 60.1238 6.06869C61.0393 6.62931 61.4971 7.50221 61.4971 8.68647C61.4971 9.46578 61.2978 10.1311 60.8984 10.6825C60.499 11.2338 59.9736 11.5887 59.3213 11.7472V11.8426C60.1831 12.0706 60.8067 12.4505 61.1931 12.9833C61.5795 13.5152 61.7732 14.2065 61.7732 15.0553C61.7732 16.3165 61.2997 17.3089 60.3526 18.0345C59.4056 18.7601 58.1148 19.1224 56.4802 19.1224H51.0732V5.22729H51.0723ZM54.8261 10.5583H55.9566C56.495 10.5583 56.912 10.4471 57.2067 10.2256C57.5013 10.0042 57.6487 9.67428 57.6487 9.2369C57.6487 8.45759 57.0593 8.0684 55.8816 8.0684H54.827V10.5583H54.8261ZM54.8261 13.3049V16.222H56.1466C57.3188 16.222 57.9044 15.7281 57.9044 14.7393C57.9044 14.2769 57.7478 13.922 57.4337 13.6746C57.1205 13.4272 56.6655 13.304 56.0697 13.304H54.8252L54.8261 13.3049Z" fill="#262B41"></path>
<path d="M67.9399 14.0657V19.1214H64.186V5.22729H68.7377C72.5138 5.22729 74.4014 6.59595 74.4014 9.33234C74.4014 10.9419 73.6156 12.1864 72.0449 13.0667L76.0935 19.1205H71.8364L68.8906 14.0647H67.9399V14.0657ZM67.9399 11.2431H68.6432C69.9544 11.2431 70.6105 10.663 70.6105 9.50377C70.6105 8.54747 69.9674 8.0684 68.6812 8.0684H67.9399V11.2422V11.2431Z" fill="#262B41"></path>
<path d="M85.8816 19.1205L85.1977 16.5166H80.684L79.9807 19.1205H75.8562L80.3894 5.1698H85.3979L89.9876 19.1205H85.8825H85.8816ZM84.4184 13.4373L83.8198 11.1569C83.6808 10.65 83.5112 9.99485 83.3111 9.1896C83.1119 8.38527 82.9803 7.80889 82.9163 7.46047C82.8589 7.78387 82.7468 8.31577 82.579 9.05709C82.4113 9.7984 82.0388 11.2588 81.4624 13.4383H84.4175L84.4184 13.4373Z" fill="#262B41"></path>
<path d="M95.2426 14.0657V19.1214H91.4888V5.22729H96.0405C99.8166 5.22729 101.704 6.59595 101.704 9.33234C101.704 10.9419 100.918 12.1864 99.3477 13.0667L103.396 19.1205H99.1392L96.1934 14.0647H95.2426V14.0657ZM95.2426 11.2431H95.9459C97.2572 11.2431 97.9132 10.663 97.9132 9.50377C97.9132 8.54747 97.2701 8.0684 95.9839 8.0684H95.2426V11.2422V11.2431Z" fill="#262B41"></path>
<path d="M109.621 10.3785L112.015 5.22815H116.082L111.511 13.6959V19.1223H107.728V13.8098L103.157 5.22815H107.244L109.62 10.3785H109.621Z" fill="#262B41"></path>
<path d="M46.1972 39.8644H41.2748L36.2005 30.0762H36.1153C36.2357 31.6154 36.296 32.7913 36.296 33.6021V39.8644H32.9702V25.9711H37.874L42.9298 35.6259H42.9873C42.8983 34.2257 42.8538 33.1017 42.8538 32.252V25.9702H46.199V39.8634L46.1972 39.8644Z" fill="#262B41"></path>
<path d="M57.4485 39.8644H49.1995V25.9712H57.4485V28.9837H52.9533V31.1697H57.1158V34.1822H52.9533V36.8056H57.4485V39.8653V39.8644Z" fill="#262B41"></path>
<path d="M72.3971 39.8644H68.0539L65.3453 35.5212L62.6655 39.8644H58.4177L63.0269 32.7561L58.6939 25.9712H62.8564L65.3648 30.2662L67.7787 25.9712H72.0645L67.6647 33.0508L72.3971 39.8644Z" fill="#262B41"></path>
<path d="M80.0845 39.8644H76.3307V29.0403H72.9382V25.9712H83.4677V29.0403H80.0845V39.8644Z" fill="#262B41"></path>
<path d="M102.303 32.6227C102.303 34.9411 101.664 36.7277 100.388 37.9824C99.1106 39.2371 97.3166 39.8644 95.0037 39.8644H90.5085V25.9712H95.3169C97.5464 25.9712 99.2681 26.5411 100.482 27.6818C101.695 28.8225 102.302 30.4691 102.302 32.6236L102.303 32.6227ZM98.4064 32.7561C98.4064 31.4829 98.1543 30.5386 97.6512 29.9243C97.1471 29.3099 96.3826 29.0023 95.3558 29.0023H94.2633V36.7852H95.0992C96.2399 36.7852 97.0757 36.4544 97.6076 35.7918C98.1395 35.1302 98.4054 34.1174 98.4054 32.7552L98.4064 32.7561Z" fill="#262B41"></path>
<path d="M117.793 32.8988C117.793 35.2367 117.219 37.014 116.073 38.2298C114.926 39.4465 113.247 40.0544 111.036 40.0544C108.825 40.0544 107.186 39.4428 106.023 38.2205C104.86 36.9983 104.279 35.2173 104.279 32.8803C104.279 30.5433 104.858 28.8021 106.014 27.5826C107.17 26.3632 108.85 25.7534 111.055 25.7534C113.259 25.7534 114.941 26.3585 116.082 27.5687C117.223 28.7789 117.793 30.5562 117.793 32.8997V32.8988ZM108.232 32.8988C108.232 35.5851 109.166 36.9279 111.035 36.9279C111.985 36.9279 112.69 36.6017 113.15 35.9493C113.61 35.297 113.839 34.2804 113.839 32.8988C113.839 31.5172 113.606 30.4867 113.14 29.8242C112.674 29.1626 111.979 28.8308 111.054 28.8308C109.172 28.8308 108.231 30.1865 108.231 32.8979L108.232 32.8988Z" fill="#262B41"></path>
<path d="M133.302 32.8988C133.302 35.2367 132.728 37.014 131.582 38.2298C130.435 39.4465 128.757 40.0544 126.546 40.0544C124.335 40.0544 122.695 39.4428 121.533 38.2205C120.37 36.9983 119.789 35.2173 119.789 32.8803C119.789 30.5433 120.367 28.8021 121.523 27.5826C122.68 26.3632 124.36 25.7534 126.564 25.7534C128.769 25.7534 130.451 26.3585 131.591 27.5687C132.732 28.7789 133.302 30.5562 133.302 32.8997V32.8988ZM123.742 32.8988C123.742 35.5851 124.676 36.9279 126.545 36.9279C127.495 36.9279 128.2 36.6017 128.659 35.9493C129.119 35.297 129.348 34.2804 129.348 32.8988C129.348 31.5172 129.115 30.4867 128.649 29.8242C128.183 29.1626 127.488 28.8308 126.563 28.8308C124.681 28.8308 123.741 30.1865 123.741 32.8979L123.742 32.8988Z" fill="#262B41"></path>
<path d="M139.564 34.8086V39.8644H135.81V25.9712H140.362C144.138 25.9712 146.026 27.3399 146.026 30.0762C146.026 31.6858 145.24 32.9303 143.669 33.8106L147.718 39.8644H143.461L140.515 34.8086H139.564ZM139.564 31.9861H140.267C141.579 31.9861 142.235 31.406 142.235 30.2467C142.235 29.2904 141.592 28.8114 140.305 28.8114H139.564V31.9851V31.9861Z" fill="#262B41"></path>
</g>
<defs>
<clipPath id="clip0_90_282">
<rect width="147.719" height="44" fill="white"></rect>
</clipPath>
</defs>
</svg>
